<svg width="32" height="32" viewBox="0 0 84 40" fill="none" xmlns="http://www.w3.org/2000/svg">
<path d="M0.195682 39.5122L19.8434 39.5514C20.1229 39.5514 20.3912 39.4478 20.598 39.2603L43.3787 18.5476L43.3792 18.234L43.4067 0.267305L23.6584 0.107762C23.3789 0.107762 23.1078 0.208526 22.8982 0.39606L0.368962 20.812C0.1314 21.0276 -0.00275203 21.3355 4.28138e-05 21.6545L0.195682 39.5122Z" fill="#1C5F8D"/>
<path d="M43.3787 18.5476C43.3787 18.5476 43.3787 39.4451 43.3787 39.5234C43.3787 39.6634 43.5213 39.6634 43.5996 39.6634L83.1577 39.5626C83.2359 39.5626 83.2974 39.501 83.2974 39.4226V18.8443C83.2974 18.5504 83.1745 18.2705 82.9565 18.0746L63.1047 0.0629777C63.0125 -0.0209926 62.8727 -0.0209926 62.7777 0.0629777L43.3792 18.234L43.3787 18.5476Z" fill="#1C5F8D"/>
</svg>
