<svg width="173" height="40" viewBox="0 0 173 40" fill="none" xmlns="http://www.w3.org/2000/svg">
<path d="M103.999 4.82409H106.847C106.939 4.82409 107.014 4.89967 107.014 4.99203V5.48186C107.014 5.57423 106.939 5.6498 106.847 5.6498H103.225C103.132 5.6498 103.057 5.57423 103.057 5.48186V0.491226C103.057 0.398859 103.132 0.323286 103.225 0.323286H106.78C106.872 0.323286 106.947 0.398859 106.947 0.491226V0.947465C106.947 1.03983 106.872 1.11541 106.78 1.11541H103.999C103.907 1.11541 103.831 1.19098 103.831 1.28335V2.43654C103.831 2.5289 103.907 2.60448 103.999 2.60448H106.643C106.735 2.60448 106.81 2.68005 106.81 2.77242V3.12509C106.81 3.21746 106.735 3.29303 106.643 3.29303H103.999C103.907 3.29303 103.831 3.36861 103.831 3.46098V4.65615C103.831 4.74852 103.907 4.82409 103.999 4.82409Z" fill="white"/>
<path d="M116.654 0.345678C118.029 0.354075 119.138 1.55765 119.13 3.03832C119.122 4.519 118.001 5.71138 116.626 5.70298C115.251 5.69458 114.141 4.49101 114.15 3.01033C114.158 1.52966 115.279 0.337281 116.654 0.345678ZM116.668 1.11541C115.771 1.09581 115.022 1.93551 114.999 2.99074C114.974 4.04597 115.684 4.91926 116.581 4.93885C117.478 4.95844 118.227 4.11874 118.25 3.06352C118.275 2.00829 117.565 1.135 116.668 1.11541Z" fill="white"/>
<path d="M119.614 23.1324C119.636 23.1912 119.605 23.2556 119.549 23.2752C119.538 23.2808 119.524 23.2808 119.51 23.2836H115.53C115.505 23.2836 115.483 23.2668 115.477 23.2444C114.742 20.6525 113.149 18.9255 110.698 18.0606C108.076 17.1397 105.539 17.3105 103.088 18.5756C98.9653 20.7029 97.9675 25.8754 98.9597 29.9844C99.7646 33.3236 102.314 35.8371 105.748 36.4221C109.597 37.0743 113.58 35.7168 115.273 32.0976C115.653 31.2859 115.835 30.3287 116.204 29.5226C116.226 29.4694 116.204 29.4078 116.151 29.3854C116.137 29.3798 116.123 29.377 116.109 29.377H106.732C106.671 29.377 106.62 29.3266 106.62 29.265V26.1665C106.62 26.1106 106.668 26.063 106.724 26.063H119.885C119.941 26.063 119.988 26.1078 119.988 26.1637C119.943 27.8264 119.792 29.3154 119.535 30.6282C118.845 34.1381 116.777 36.9203 113.58 38.569C109.298 40.7746 103.395 40.4443 99.5019 37.3374C95.5891 34.2193 94.4125 29.5925 94.9882 24.6691C95.1923 22.9337 95.796 21.2655 96.7993 19.6672C99.4404 15.4547 104.278 13.5766 109.15 14.1644C112.68 14.587 116.081 16.4876 117.886 19.5021C118.476 20.4874 119.052 21.6965 119.614 23.1296V23.1324Z" fill="white"/>
<path d="M127.238 27.0202C127.238 30.8437 128.96 34.5804 132.735 35.9659C134.879 36.7524 137.495 36.7804 139.58 35.8595C142.176 34.7091 143.744 32.6099 144.281 29.5561C144.289 29.5002 144.34 29.4582 144.398 29.4582H148.473C148.507 29.4582 148.532 29.4862 148.532 29.517C148.532 29.5226 148.532 29.5281 148.532 29.5337C148.241 30.4322 147.917 31.3335 147.562 32.2432C146.033 36.1254 143.247 38.5801 139.203 39.6046C137.146 40.128 135.058 40.1308 132.939 39.6186C126.956 38.1715 123.389 33.0773 123.392 27.0202C123.392 20.9604 126.961 15.8662 132.945 14.4247C135.066 13.9125 137.154 13.9181 139.208 14.4415C143.252 15.4687 146.039 17.9235 147.565 21.8085C147.92 22.7182 148.244 23.6194 148.532 24.5179C148.54 24.5487 148.523 24.5823 148.493 24.5907C148.487 24.5907 148.481 24.5907 148.476 24.5907H144.401C144.342 24.5879 144.292 24.5459 144.284 24.4899C143.75 21.4362 142.185 19.3342 139.588 18.1838C137.503 17.2629 134.887 17.2881 132.744 18.0746C128.965 19.4573 127.243 23.194 127.241 27.0174L127.238 27.0202Z" fill="white"/>
<path d="M157.042 39.5094C157.042 39.5794 156.986 39.6354 156.916 39.6354H153.266C153.185 39.6354 153.191 39.557 153.191 39.557L153.241 16.1797L153.191 14.4415H163.624C164.51 14.4471 165.653 14.6178 167.059 14.9509C169.89 15.6227 172.087 17.4588 172.738 20.3754C173.864 25.408 171.313 29.8612 166.011 30.5078C163.045 30.8689 157.042 30.6953 157.042 30.6953M156.941 17.8647V27.3589C156.941 27.4037 156.978 27.4401 157.023 27.4401H163.968C166.855 27.4401 169.194 25.4276 169.194 22.9421V22.2815C169.194 19.796 166.855 17.7835 163.968 17.7835H157.023C156.978 17.7835 156.941 17.8199 156.941 17.8647Z" fill="white"/>
<path d="M0.195682 39.5122L19.8434 39.5514C20.1229 39.5514 20.3912 39.4478 20.598 39.2603L43.3787 18.5476L43.3792 18.234L43.4067 0.267305L23.6584 0.107762C23.3789 0.107762 23.1078 0.208526 22.8982 0.39606L0.368962 20.812C0.1314 21.0276 -0.00275203 21.3355 4.28138e-05 21.6545L0.195682 39.5122Z" fill="white"/>
<path d="M148.473 29.4582C148.325 30.4406 147.643 34.1549 144.309 37.0239C141.111 39.7753 137.495 40.016 135.961 39.9992C135.399 39.9936 129.421 39.8257 125.782 34.8603C123.554 31.8177 123.42 28.6353 123.389 27.4401C123.353 26.1525 123.303 22.0464 126.318 18.4861C129.929 14.2232 135.128 14.058 135.961 14.0468C136.911 14.0384 141.198 14.1084 144.756 17.4532C147.629 20.1543 148.339 23.4095 148.529 24.5207H144.281C143.688 21.3634 141.52 18.766 138.596 17.7863C134.815 16.5212 131.109 18.4077 129.164 20.7365C126.956 23.3815 127.073 26.5276 127.107 27.4429C127.143 28.4057 127.252 30.6002 128.764 32.733C128.985 33.0465 131.522 36.4949 135.961 36.5565C136.592 36.5649 139.876 36.6096 142.26 34.0122C143.828 32.3048 144.183 30.3511 144.281 29.5589L148.473 29.461L148.473 29.4582Z" fill="white"/>
<path d="M100.198 0.773926C99.7479 0.466035 99.2923 0.387663 99.0352 0.362472H96.8748V5.67779L98.9821 5.6498C99.2476 5.63301 99.8065 5.55743 100.329 5.15718C101.285 4.42104 101.285 3.22026 101.285 3.01873C101.282 2.83959 101.26 1.50727 100.198 0.773926ZM98.7361 4.92486H97.7495V1.05943H98.7361C99.8037 1.05943 100.483 1.99709 100.486 2.98514C100.488 3.98159 99.7954 4.92486 98.7361 4.92486Z" fill="white"/>
<path d="M106.802 5.6498H103.205C103.124 5.6498 103.06 5.58542 103.06 5.50425V0.471633C103.06 0.390462 103.124 0.326085 103.205 0.326085H106.802C106.883 0.326085 106.947 0.390462 106.947 0.471633V0.958661C106.947 1.03983 106.883 1.10421 106.802 1.10421H103.99C103.909 1.10421 103.845 1.16859 103.845 1.24976V2.45613C103.845 2.5373 103.909 2.60168 103.99 2.60168H106.632C106.713 2.60168 106.777 2.66606 106.777 2.74723V3.12229C106.777 3.20347 106.713 3.26784 106.632 3.26784L104.002 3.27624C103.921 3.27624 103.856 3.34342 103.856 3.42179V4.63936C103.856 4.72053 103.921 4.78491 104.002 4.78491H106.802C106.883 4.78491 106.947 4.84928 106.947 4.93046V5.49585C106.947 5.57703 106.883 5.6414 106.802 5.6414V5.6498Z" fill="white"/>
<path d="M112.135 2.13704H112.895C112.92 2.12305 112.671 1.34213 112.23 0.891485C111.746 0.398859 111.047 0.323286 110.645 0.323286C110.407 0.337281 109.577 0.410055 108.943 1.07062C108.306 1.73679 108.28 2.56529 108.267 2.98794C108.255 3.36301 108.236 4.01238 108.652 4.65335C108.708 4.74012 109.368 5.71698 110.578 5.77576C110.743 5.78415 111.665 5.82894 112.336 5.12359C112.741 4.69814 112.856 4.21111 112.892 3.99559H112.129C112.104 4.07396 111.861 4.8017 111.142 5.03402C110.5 5.24394 109.748 4.96684 109.326 4.33707C109.2 4.09075 108.996 3.61212 109.004 2.98794C109.01 2.60728 109.016 2.00269 109.463 1.53526C109.854 1.1266 110.567 0.832705 111.235 1.10981C111.889 1.38131 112.098 2.03628 112.129 2.13424L112.135 2.13704Z" fill="white"/>
<path d="M120.868 5.73937V0.365271H122.867C123.328 0.365271 123.708 0.435246 124.004 0.577995C124.301 0.720745 124.521 0.916676 124.664 1.16579C124.806 1.4149 124.876 1.6976 124.876 2.01389C124.876 2.33018 124.804 2.61008 124.664 2.85639C124.521 3.0999 124.303 3.29303 124.007 3.43299C123.714 3.57294 123.336 3.64291 122.878 3.64291H121.26V3.05512H122.853C123.169 3.05512 123.423 3.01313 123.619 2.92916C123.811 2.84519 123.951 2.72484 124.041 2.57089C124.127 2.41694 124.172 2.23221 124.172 2.01669C124.172 1.80116 124.127 1.61363 124.038 1.45129C123.951 1.29174 123.809 1.16579 123.613 1.07622C123.417 0.98945 123.16 0.944666 122.842 0.944666H121.581V5.74217H120.866L120.868 5.73937ZM123.652 3.32662L125.108 5.74217H124.275L122.844 3.32662H123.652Z" fill="white"/>
<path d="M43.3787 18.5476C43.3787 18.5476 43.3787 39.4451 43.3787 39.5234C43.3787 39.6634 43.5213 39.6634 43.5996 39.6634L83.1577 39.5626C83.2359 39.5626 83.2974 39.501 83.2974 39.4226V18.8443C83.2974 18.5504 83.1745 18.2705 82.9565 18.0746L63.1047 0.0629777C63.0125 -0.0209926 62.8727 -0.0209926 62.7777 0.0629777L43.3792 18.234L43.3787 18.5476Z" fill="white"/>
</svg>
